<svg width="69" height="57" viewBox="0 0 69 57" fill="none" xmlns="http://www.w3.org/2000/svg">
<path d="M37.0836 55.8029C36.6977 55.4247 36.3916 54.9754 36.1827 54.4807C35.9737 53.9859 35.8662 53.4555 35.8662 52.9198C35.8662 52.3841 35.9737 51.8537 36.1827 51.3589C36.3916 50.8642 36.6977 50.4149 37.0836 50.0367L54.8442 32.5721L4.13918 32.5721C3.0414 32.5721 1.98858 32.1433 1.21234 31.38C0.436089 30.6167 -4.06326e-06 29.5814 -4.01607e-06 28.5019C-3.96889e-06 27.4224 0.436089 26.3872 1.21234 25.6238C1.98858 24.8605 3.0414 24.4317 4.13918 24.4317L54.8442 24.4317L37.0836 6.96033C36.306 6.1957 35.8692 5.15863 35.8692 4.07727C35.8692 2.99591 36.306 1.95884 37.0836 1.1942C37.8612 0.429567 38.9159 -1.30363e-06 40.0156 -1.26695e-06C41.1152 -1.23028e-06 42.1699 0.429568 42.9475 1.1942L67.7826 25.6155C68.1685 25.9936 68.4746 26.4429 68.6835 26.9377C68.8925 27.4324 69 27.9628 69 28.4985C69 29.0342 68.8925 29.5647 68.6835 30.0594C68.4746 30.5541 68.1685 31.0035 67.7826 31.3816L42.9475 55.8029C42.5629 56.1823 42.106 56.4834 41.6029 56.6888C41.0997 56.8942 40.5603 57 40.0155 57C39.4708 57 38.9314 56.8942 38.4282 56.6888C37.9251 56.4834 37.4682 56.1823 37.0836 55.8029Z" fill="#CCC2B1"/>
</svg>
